<?xml version="1.0" ?><svg viewBox="0 0 60 60" xmlns="http://www.w3.org/2000/svg"><title/><g id="colour"><path d="M48.06,30H32V55.31A10.40833,10.40833,0,0,0,30,59a10.40833,10.40833,0,0,0-2-3.69V30H11.94A18.595,18.595,0,0,0,13,26H28V6.91c.69.06,1.36.09,2,.09s1.31-.03,2-.09V26H47A18.595,18.595,0,0,0,48.06,30Z" fill="#f57b02"/><path d="M28,6.91V26H13c.93-5.87-.79-12.21-5-18l8-7A18.924,18.924,0,0,0,28,6.91Z" fill="#ba2a2a"/><path d="M28,30V55.31c-3.48-3.95-8.91-1.95-13-9.31l-3,3L4,40a22.25532,22.25532,0,0,0,7.94-10Z" fill="#fbc12e"/><path d="M30,59a10.40833,10.40833,0,0,1,2-3.69V50.66667c-.78.88-2.70833,2.45833-3.29167,4.45833C28.15835,53.485,29.45,57.36,30,59Z" fill="#d86a07"/><path d="M47,26H32V6.91A18.924,18.924,0,0,0,44,1l8,7C47.79,13.79,46.07,20.13,47,26Z" fill="#398e3d"/><path d="M52,8,44,1a24.14066,24.14066,0,0,1-2.0376,1.81885L48.31232,8.375C44.19153,14.0423,42.46326,20.23541,43.26367,26H47C46.07,20.13,47.79,13.79,52,8Z" fill="#327732"/><path d="M56,40l-8,9-3-3c-4.09,7.36-9.52,5.36-13,9.31V30H48.06A22.25532,22.25532,0,0,0,56,40Z" fill="#0288d0"/><path d="M54.8811,39.12848q-.48367-.3988-.94263-.80914A21.43491,21.43491,0,0,1,48.06,30l-3.66693.41669a22.19667,22.19667,0,0,0,7.7868,9.88068L48,44.99976l-2.6174-2.33168a.99418.99418,0,0,0-1.45233.13358C37.875,50.875,35.68749,47.75,32,51.30975V55.31c3.48-3.95,8.91-1.95,13-9.31l1.25476,1.25476L48,49l8-9C55.61163,39.717,55.24475,39.42346,54.8811,39.12848Z" fill="#0579ad"/><path d="M47,26H43.31232a18.595,18.595,0,0,0,1.06,4H48.06A18.595,18.595,0,0,1,47,26Z" fill="#d86a07"/><path d="M28,6.91v.014c.05341-.004.1026-.00275.15619-.007C28.10254,6.91266,28.05389,6.91467,28,6.91Z" fill="#f57b02"/><path d="M28.31232,6.91c-.05389.0047-.10248.00269-.15613.007.05359.00427.10272.00305.15613.007Z" fill="#f57b02"/></g><g data-name="Layer 1" id="Layer_1"><path d="M56.58838,39.19176c-10.186-7.40771-11.70459-19.70654-3.77979-30.603a1,1,0,0,0-.1499-1.34082l-8-7A1.00034,1.00034,0,0,0,43.293.29332,17.84344,17.84344,0,0,1,30,6.00036,17.84344,17.84344,0,0,1,16.707.29332,1.00027,1.00027,0,0,0,15.34131.24791l-8,7a1,1,0,0,0-.1499,1.34082c7.9248,10.89648,6.40625,23.19531-3.77979,30.603a1.00052,1.00052,0,0,0-.15918,1.47314l8,9a1.00031,1.00031,0,0,0,.71826.335.95576.95576,0,0,0,.73633-.29248l2.09668-2.09619c2.478,3.78711,5.34863,4.82861,7.90625,5.75684,2.77,1.00537,4.958,1.79932,6.34131,5.94873a1.00015,1.00015,0,0,0,1.89746,0C32.332,55.16735,34.52,54.3734,37.29,53.368c2.55762-.92822,5.42822-1.96973,7.90625-5.75684L47.293,49.70739a.96031.96031,0,0,0,.73633.29248,1.00031,1.00031,0,0,0,.71826-.335l8-9a1.00052,1.00052,0,0,0-.15918-1.47314ZM44.0332,2.35827,50.66309,8.159c-3.80695,5.53931-5.37408,11.38043-4.82153,16.84131H33V7.77337A19.89,19.89,0,0,0,44.0332,2.35827ZM9.33692,8.159,15.9668,2.35827A19.89,19.89,0,0,0,27,7.77337v17.227H14.15845C14.711,19.53948,13.14386,13.69835,9.33692,8.159Zm14.05518,43.3291c-2.58594-.93848-5.25977-1.90869-7.51807-5.97363a1.00058,1.00058,0,0,0-.73535-.50439A1.024,1.024,0,0,0,15,45.00036a.99991.99991,0,0,0-.707.293l-2.25,2.25L5.46582,40.1444a23.25735,23.25735,0,0,0,7.14783-9.144H27v22.138A16.82117,16.82117,0,0,0,23.39209,51.48815ZM30,56.45934a9.74239,9.74239,0,0,0-1-1.48456V30.00036a1,1,0,0,0-1-1H13.34528a20.53459,20.53459,0,0,0,.5094-2H28a1,1,0,0,0,1-1V7.95641c.33325.01483.66071.04395,1,.04395s.66675-.02911,1-.04395V26.00036a1,1,0,0,0,1,1H46.14533a20.53459,20.53459,0,0,0,.5094,2H32a1,1,0,0,0-1,1V54.97478A9.74239,9.74239,0,0,0,30,56.45934Zm17.957-8.916-2.25-2.25a1,1,0,0,0-1.58105.22119c-2.2583,4.06494-4.93213,5.03516-7.51807,5.97363A16.82117,16.82117,0,0,0,33,53.13836v-22.138H47.38635a23.25735,23.25735,0,0,0,7.14783,9.144Z"/></g></svg>